<?xml version="1.0" standalone="no"?>
<!DOCTYPE svg PUBLIC "-//W3C//DTD SVG 20010904//EN" "http://www.w3.org/TR/2001/REC-SVG-20010904/DTD/svg10.dtd">
<svg version="1.0" xmlns="http://www.w3.org/2000/svg"
	width="931.000000pt" height="677.000000pt" viewBox="0 0 931.000000 677.000000"
	preserveAspectRatio="xMidYMid meet">

	<g transform="translate(0.000000,677.000000) scale(0.100000,-0.100000)"
		fill="#EAB308" stroke="none">
		<path
			d="M0 3385 l0 -3385 4655 0 4655 0 0 3385 0 3385 -4655 0 -4655 0 0
-3385z m4872 2324 c242 -319 406 -543 414 -564 5 -12 -6 -15 -60 -15 l-66 0
-55 68 c-31 37 -140 175 -242 307 -102 132 -191 246 -198 253 -9 10 -55 -43
-216 -250 -112 -145 -226 -289 -252 -320 l-48 -58 -64 0 c-36 0 -65 4 -65 9 0
22 622 851 635 847 6 -1 103 -126 217 -277z m-1132 -118 c0 -5 -22 -17 -49
-26 -59 -19 -138 -86 -157 -132 -25 -58 -18 -82 48 -168 178 -229 410 -516
421 -519 66 -17 75 -26 189 -171 65 -82 118 -154 118 -160 -1 -18 -88 -77
-102 -69 -7 4 -24 16 -37 28 -23 20 -24 20 -17 2 7 -20 7 -20 -15 0 -48 43
-208 241 -214 265 -4 18 0 30 15 44 l20 18 -22 24 c-12 13 -29 23 -39 23 -16
0 -125 113 -333 345 -148 165 -130 150 -166 135 -17 -7 -37 -25 -45 -41 -15
-29 -95 -99 -112 -99 -16 0 -103 110 -103 129 0 22 87 91 116 91 23 0 64 42
64 66 0 19 96 121 148 156 25 17 70 39 101 49 59 19 171 25 171 10z m2041 -28
c82 -38 178 -126 208 -191 22 -47 61 -79 81 -67 4 3 29 -14 55 -38 56 -50 55
-58 -10 -131 -41 -46 -46 -49 -68 -37 -23 12 -68 55 -109 103 -49 57 -46 58
-282 -203 -139 -153 -230 -246 -250 -254 -49 -21 -63 -41 -42 -63 29 -33 18
-59 -66 -159 -107 -129 -158 -185 -158 -173 0 5 5 12 10 15 6 3 10 11 10 17 0
6 -15 -1 -34 -16 -19 -14 -38 -26 -41 -26 -14 0 -85 62 -85 73 0 13 181 251
227 299 15 15 39 28 57 30 27 3 57 37 263 297 129 162 236 305 239 317 16 64
-61 164 -159 204 -31 13 -57 28 -57 33 0 6 31 8 74 5 53 -4 91 -13 137 -35z
m-953 -255 c7 -7 12 -38 12 -69 l0 -58 -52 -3 -53 -3 -3 -247 -2 -248 -75 0
-75 0 0 198 c0 108 -3 221 -6 250 l-7 52 -48 0 -49 0 0 64 c0 42 4 66 13 69
28 12 333 7 345 -5z m-1007 -821 c386 -516 394 -526 382 -528 -4 -1 -39 -2
-78 -3 -70 -2 -70 -2 -107 38 -21 23 -151 188 -290 368 -139 180 -256 327
-260 327 -4 1 -122 -146 -262 -326 -348 -449 -307 -407 -399 -408 -43 -1 -77
1 -77 5 0 12 98 147 383 530 299 401 344 460 355 460 4 0 163 -208 353 -463z
m2316 81 c310 -413 443 -596 443 -607 0 -4 -35 -6 -77 -6 -93 2 -54 -38 -400
408 -140 180 -258 327 -262 327 -3 0 -31 -32 -61 -72 -136 -180 -447 -577
-482 -618 l-40 -45 -79 0 c-43 0 -79 1 -79 3 0 15 731 992 742 992 4 0 137
-172 295 -382z m-3025 343 c25 -16 57 -44 72 -63 26 -35 34 -68 16 -68 -5 0
-10 -7 -10 -15 0 -20 -44 -19 -78 2 -41 25 -82 65 -97 94 -13 23 -12 29 7 52
27 34 34 34 90 -2z m3188 14 c0 -8 6 -14 12 -12 7 1 14 -8 16 -20 4 -29 -67
-101 -126 -127 l-44 -20 -19 25 c-24 31 -24 44 1 79 43 61 160 115 160 75z
m-3217 -168 c-8 -13 -443 -514 -486 -559 -31 -33 -53 -38 -37 -9 14 26 13 31
-6 31 -19 0 -6 17 195 255 96 113 150 169 161 168 14 -2 17 3 12 20 -5 19 -3
20 10 9 14 -11 16 -10 11 9 -5 18 -3 21 10 16 12 -4 14 -2 10 10 -5 12 -2 15
9 10 12 -4 14 -1 10 15 -4 17 -2 20 11 15 11 -4 14 -2 10 9 -3 8 2 23 12 34
17 19 18 19 46 -1 17 -12 26 -25 22 -32z m3236 29 c8 -13 10 -29 7 -35 -5 -7
-1 -8 10 -4 14 5 16 3 11 -11 -6 -14 -3 -17 9 -12 13 5 15 2 11 -13 -3 -14 -1
-18 9 -14 17 6 18 -9 2 -25 -7 -7 -8 -12 -2 -12 6 0 15 5 22 12 7 7 12 8 12 2
0 -5 -6 -16 -12 -22 -10 -10 -8 -12 11 -10 21 3 49 -28 193 -212 158 -202 179
-232 161 -229 -20 3 -23 -3 -13 -21 11 -20 4 -26 -16 -12 -11 7 -219 258 -398
480 l-98 122 23 20 c32 26 43 25 58 -4z m-1634 -600 c23 -53 25 -55 72 -61 80
-11 81 -12 33 -60 -43 -44 -43 -44 -36 -99 3 -31 3 -56 -1 -56 -5 1 -28 11
-53 24 l-45 24 -47 -24 c-26 -13 -50 -24 -53 -24 -4 0 -3 25 1 56 7 56 6 56
-36 99 -47 48 -47 49 31 60 43 5 46 8 72 60 15 30 29 55 32 55 4 0 17 -24 30
-54z m-1245 -31 l0 -65 -70 0 -70 0 0 65 0 65 70 0 70 0 0 -65z m190 0 l0 -65
-65 0 -65 0 0 65 0 65 65 0 65 0 0 -65z m2180 0 l0 -65 -65 0 -65 0 0 65 0 65
65 0 65 0 0 -65z m198 -2 l3 -63 -71 0 -70 0 0 65 0 66 68 -3 67 -3 3 -62z
m-2573 -193 l0 -65 -65 0 -65 0 -3 54 c-5 80 -2 82 70 79 l63 -3 0 -65z m193
3 l-3 -68 -62 -3 -63 -3 0 71 0 70 65 0 66 0 -3 -67z m2182 -3 l0 -71 -62 3
-63 3 -3 68 -3 67 66 0 65 0 0 -70z m195 0 l0 -65 -65 0 -65 0 -3 68 -3 68 68
-3 68 -3 0 -65z m1821 -262 c-3 -13 -6 -35 -6 -50 l0 -28 -3164 0 -3164 0 -6
23 c-3 12 -6 34 -6 50 l0 27 3176 0 3176 0 -6 -22z m-2940 -369 c56 -27 79
-63 89 -131 l7 -48 -31 0 c-37 0 -39 -6 -7 -31 14 -11 30 -36 37 -56 15 -47 5
-140 -19 -172 -64 -88 -326 -96 -405 -13 -29 30 -47 78 -47 124 0 25 3 28 35
28 19 0 35 2 35 4 0 2 -13 18 -29 35 -46 50 -54 158 -15 218 46 71 244 95 350
42z m2691 6 c52 -21 98 -71 112 -122 18 -63 18 -63 -69 -63 -64 0 -80 3 -80
15 0 55 -123 78 -176 32 -22 -19 -28 -34 -32 -80 -6 -72 2 -103 35 -133 34
-32 108 -34 147 -3 14 11 26 27 26 35 0 11 17 14 81 14 l81 0 -7 -42 c-14 -89
-65 -138 -163 -159 -116 -24 -244 3 -298 63 -49 53 -59 87 -59 198 0 83 4 112
19 140 37 70 81 104 159 120 59 13 174 5 224 -15z m1129 10 c78 -23 124 -83
124 -161 0 -30 -3 -34 -25 -34 -31 0 -31 -9 0 -38 47 -44 56 -143 20 -212 -8
-16 -35 -38 -62 -51 -42 -21 -63 -24 -158 -24 -98 0 -115 3 -152 24 -49 28
-83 87 -83 144 0 36 1 37 37 37 l37 0 -26 28 c-39 41 -48 66 -48 129 0 93 39
139 137 162 59 14 145 12 199 -4z m-7776 -60 c0 -73 1 -73 -100 -77 l-55 -3
-3 -188 -2 -188 -78 3 -77 3 -3 188 -2 187 -59 0 c-89 0 -91 2 -91 76 l0 64
235 0 235 0 0 -65z m456 -185 c51 -135 93 -251 94 -257 0 -9 -22 -13 -78 -13
l-79 0 -13 40 c-15 47 -29 53 -114 48 -61 -3 -67 -7 -86 -60 -9 -27 -11 -28
-91 -28 -73 0 -80 2 -74 18 4 9 48 126 98 260 l91 243 80 -3 80 -3 92 -245z
m679 108 c32 -79 62 -147 67 -153 12 -14 18 -2 84 158 l57 137 93 0 94 0 -2
-257 -3 -258 -77 -3 -78 -3 0 70 c0 38 -4 72 -9 75 -5 3 -23 -27 -39 -67 l-31
-72 -81 0 -82 0 -30 72 c-17 40 -35 70 -39 67 -5 -3 -9 -37 -9 -75 l0 -70 -77
3 -78 3 -3 258 -2 257 93 0 93 0 59 -142z m667 -34 c3 -171 4 -176 27 -195 15
-12 39 -19 66 -19 27 0 51 7 66 19 23 19 24 24 27 195 l3 176 80 0 79 0 0
-157 c-1 -174 -9 -230 -45 -284 -66 -101 -283 -119 -384 -33 -67 57 -74 83
-79 292 l-4 182 80 0 81 0 3 -176z m628 -9 c-1 -101 1 -189 5 -195 4 -6 57
-10 136 -10 l129 0 0 -65 0 -65 -215 0 -215 0 0 260 0 260 80 0 81 0 -1 -185z
m760 120 c0 -73 1 -73 -100 -77 l-55 -3 -3 -188 -2 -188 -78 3 -77 3 -3 188
-2 187 -59 0 c-89 0 -91 2 -91 76 l0 64 235 0 235 0 0 -65z m270 -195 l0 -260
-80 0 -80 0 0 260 0 260 80 0 80 0 0 -260z m1150 196 c0 -49 -4 -65 -16 -70
-9 -3 -69 -6 -135 -6 l-119 0 0 -25 0 -25 100 0 100 0 0 -70 0 -70 -101 0
-100 0 3 -27 3 -28 133 -3 132 -3 0 -64 0 -65 -215 0 -215 0 0 260 0 260 215
0 215 0 0 -64z m496 44 c55 -27 78 -73 78 -160 0 -68 -11 -98 -51 -141 l-24
-26 46 -79 c25 -43 45 -82 45 -86 0 -5 -37 -8 -82 -8 l-83 0 -45 78 c-37 63
-49 77 -70 77 -24 0 -25 -2 -28 -77 l-3 -78 -79 0 -80 0 0 260 0 260 167 0
c147 0 172 -2 209 -20z m414 -120 c29 -77 56 -140 60 -140 4 0 18 28 30 63 13
34 36 97 52 140 l30 77 79 0 c43 0 79 -2 79 -5 0 -3 -43 -120 -96 -260 l-97
-255 -78 0 -78 0 -20 53 c-119 313 -171 453 -171 460 0 4 35 7 79 7 l78 0 53
-140z m600 -120 l0 -260 -80 0 -80 0 0 260 0 260 80 0 80 0 0 -260z m1200 196
c0 -49 -4 -65 -16 -70 -9 -3 -72 -6 -141 -6 -123 0 -124 0 -121 -22 3 -22 8
-23 106 -26 l102 -3 0 -69 0 -69 -102 -3 c-91 -3 -103 -5 -106 -22 -2 -10 2
-22 10 -27 7 -5 70 -9 141 -9 l127 0 0 -65 0 -65 -220 0 -220 0 0 260 0 260
220 0 220 0 0 -64z m-427 -1273 c2 -5 2 -27 -1 -50 l-4 -43 -634 0 -633 0 -64
-57 c-35 -32 -159 -145 -276 -251 l-211 -192 -1348 0 -1347 1 -273 249 -273
250 -633 0 -634 0 -6 23 c-3 12 -6 34 -6 50 l0 27 3169 0 c1744 0 3172 -3
3174 -7z m-5033 -414 c77 -72 140 -135 140 -139 0 -9 6 -10 -157 30 -93 23
-145 30 -218 30 -67 0 -122 7 -183 22 l-87 23 45 5 45 5 -34 8 c-18 4 -81 7
-138 7 -73 0 -129 6 -186 21 -114 29 -118 39 -13 39 55 0 85 4 81 10 -4 6 -75
10 -181 10 -145 0 -189 4 -259 21 -47 12 -85 25 -85 30 0 5 239 9 545 9 l546
0 139 -131z m4954 122 c3 -5 -32 -18 -79 -30 -69 -17 -115 -21 -257 -21 -95 0
-180 -5 -188 -10 -10 -7 15 -10 79 -10 112 0 110 -10 -6 -39 -57 -15 -113 -21
-186 -21 -57 0 -120 -3 -138 -7 l-34 -8 45 -5 45 -5 -87 -23 c-60 -15 -116
-22 -182 -22 -73 0 -127 -8 -237 -34 -79 -19 -145 -33 -147 -32 -1 2 61 65
140 140 l143 136 542 0 c302 0 544 -4 547 -9z" />
		<path
			d="M4680 3206 c-25 -32 -5 -46 65 -46 l66 0 -3 28 c-3 25 -6 27 -59 30
-41 2 -59 -1 -69 -12z" />
		<path
			d="M4674 3005 c-4 -8 -1 -22 6 -31 19 -22 129 -16 144 9 16 26 -7 37
-82 37 -47 0 -64 -4 -68 -15z" />
		<path d="M4586 2889 c34 -55 304 -55 338 0 5 8 -43 11 -169 11 -126 0 -174 -3
-169 -11z" />
		<path
			d="M7290 2886 c20 -25 81 -39 160 -39 73 1 160 25 160 44 0 5 -75 9
-166 9 -144 0 -165 -2 -154 -14z" />
		<path
			d="M8542 3211 c-8 -5 -12 -17 -10 -27 3 -16 14 -19 71 -22 60 -3 67 -1
67 16 0 10 -5 23 -12 30 -14 14 -96 16 -116 3z" />
		<path
			d="M8530 3002 c0 -31 22 -42 82 -42 45 0 59 4 67 18 16 30 -7 42 -81 42
-59 0 -68 -2 -68 -18z" />
		<path
			d="M8450 2886 c33 -41 208 -53 288 -21 23 9 42 21 42 26 0 5 -77 9 -171
9 -149 0 -170 -2 -159 -14z" />
		<path
			d="M644 2885 c-10 -25 9 -37 57 -33 36 2 44 7 44 23 0 17 -8 20 -48 23
-36 2 -49 -1 -53 -13z" />
		<path d="M1200 3089 c-8 -14 -9 -24 -2 -31 17 -17 41 -2 35 22 -8 30 -20 34
-33 9z" />
		<path
			d="M992 2888 c-27 -27 -14 -39 41 -36 45 3 52 6 55 26 3 20 -1 22 -40
22 -24 0 -49 -5 -56 -12z" />
		<path
			d="M1342 2878 c3 -20 10 -23 56 -26 55 -3 58 -2 42 29 -8 14 -21 19 -56
19 -41 0 -45 -2 -42 -22z" />
		<path d="M1854 2885 c-10 -24 6 -35 51 -35 47 0 59 8 49 34 -8 21 -92 23 -100
1z" />
		<path d="M2070 2886 c0 -26 28 -37 82 -34 46 3 53 6 56 26 3 21 0 22 -67 22
-54 0 -71 -3 -71 -14z" />
		<path
			d="M2330 2876 c0 -24 3 -26 51 -26 47 0 50 2 47 23 -3 19 -10 22 -50 25
-46 3 -48 2 -48 -22z" />
		<path
			d="M2680 2886 c32 -40 182 -52 258 -21 23 9 42 21 42 26 0 5 -70 9 -156
9 -136 0 -155 -2 -144 -14z" />
		<path
			d="M3226 2884 c-3 -9 -4 -20 0 -25 3 -5 91 -9 195 -9 l190 0 -3 23 c-3
22 -5 22 -189 25 -164 2 -187 0 -193 -14z" />
		<path
			d="M3836 2884 c-10 -26 7 -36 55 -32 36 2 44 7 44 23 0 17 -8 20 -46 23
-37 2 -48 -1 -53 -14z" />
		<path
			d="M4267 2894 c-4 -4 -7 -16 -7 -26 0 -17 7 -19 53 -16 44 3 52 6 52 23
0 17 -8 20 -45 23 -25 2 -49 0 -53 -4z" />
		<path
			d="M5136 2884 c-3 -9 -4 -20 0 -25 3 -5 91 -9 195 -9 l190 0 -3 23 c-3
22 -5 22 -189 25 -164 2 -187 0 -193 -14z" />
		<path d="M5822 3168 c3 -42 4 -43 42 -46 75 -6 107 18 91 68 -5 17 -15 20 -71
20 l-65 0 3 -42z" />
		<path d="M5690 2875 c0 -23 3 -25 50 -25 47 0 50 2 50 25 0 23 -3 25 -50 25
-47 0 -50 -2 -50 -25z" />
		<path
			d="M5970 2887 c0 -25 24 -37 72 -37 52 0 53 1 38 31 -8 15 -22 19 -60
19 -34 0 -50 -4 -50 -13z" />
		<path
			d="M6440 2887 c0 -24 24 -37 70 -37 46 0 70 13 70 37 0 9 -19 13 -70 13
-51 0 -70 -4 -70 -13z" />
		<path d="M6924 2885 c-10 -24 6 -35 51 -35 47 0 59 8 49 34 -8 21 -92 23 -100
1z" />
		<path
			d="M7847 2893 c-4 -3 -7 -15 -7 -25 0 -17 12 -18 189 -18 105 0 192 4
195 9 4 5 3 16 0 25 -5 14 -31 16 -188 16 -101 0 -186 -3 -189 -7z" />
	</g>
</svg>
